HIERARCHY
ROOT Hips
{
  OFFSET 52.4275 85.2981 16.8071
  CHANNELS 6 Xposition Yposition Zposition Zrotation Xrotation Yrotation
  JOINT spine
  {
    OFFSET 0 6.3926 0.367606
    CHANNELS 3 Zrotation Xrotation Yrotation
    JOINT spine1
    {
      OFFSET 0 9.17611 0
      CHANNELS 3 Zrotation Xrotation Yrotation
      JOINT spine2
      {
        OFFSET 0 8.79238 0
        CHANNELS 3 Zrotation Xrotation Yrotation
        JOINT Neck
        {
          OFFSET 0 22.5737 1.07624
          CHANNELS 3 Zrotation Xrotation Yrotation
          JOINT Head
          {
            OFFSET 0 6.82011 0
            CHANNELS 3 Zrotation Xrotation Yrotation
            End Site
            {
              OFFSET 0 16.5085 -5.44427
            }
          }
        }
        JOINT RightShoulder
        {
          OFFSET -3.70221 9.49509 -0.515508
          CHANNELS 3 Zrotation Xrotation Yrotation
          JOINT RightArm
          {
            OFFSET 0 12.4537 0
            CHANNELS 3 Zrotation Xrotation Yrotation
            JOINT RightArmRoll
            {
              OFFSET 0 6.28686 0
              CHANNELS 3 Zrotation Xrotation Yrotation
              JOINT RightForeArm
              {
                OFFSET 0 18.3114 0
                CHANNELS 3 Zrotation Xrotation Yrotation
                JOINT RightForeArmRoll
                {
                  OFFSET 0 7.05482 0
                  CHANNELS 3 Zrotation Xrotation Yrotation
                  JOINT RightHand
                  {
                    OFFSET 0 14.1575 0
                    CHANNELS 3 Zrotation Xrotation Yrotation
                    End Site
                    {
                      OFFSET 0 0 0
                    }
                  }
                }
              }
            }
          }
        }
        JOINT LeftShoulder
        {
          OFFSET 3.70221 9.49509 -0.515508
          CHANNELS 3 Zrotation Xrotation Yrotation
          JOINT LeftArm
          {
            OFFSET 0 12.4537 0
            CHANNELS 3 Zrotation Xrotation Yrotation
            JOINT LeftArmRoll
            {
              OFFSET 0 6.28686 0
              CHANNELS 3 Zrotation Xrotation Yrotation
              JOINT LeftForeArm
              {
                OFFSET 0 18.3114 0
                CHANNELS 3 Zrotation Xrotation Yrotation
                JOINT LeftForeArmRoll
                {
                  OFFSET 0 7.05482 0
                  CHANNELS 3 Zrotation Xrotation Yrotation
                  JOINT LeftHand
                  {
                    OFFSET 0 14.1575 0
                    CHANNELS 3 Zrotation Xrotation Yrotation
                    End Site
                    {
                      OFFSET 0 0 0
                    }
                  }
                }
              }
            }
          }
        }
      }
    }
  }
  JOINT RightUpLeg
  {
    OFFSET -5.66616 -1.03903 -0.87161
    CHANNELS 3 Zrotation Xrotation Yrotation
    JOINT RightUpLegRoll
    {
      OFFSET 0 16.6005 0
      CHANNELS 3 Zrotation Xrotation Yrotation
      JOINT RightLeg
      {
        OFFSET 0 -20.5572 0
        CHANNELS 3 Zrotation Xrotation Yrotation
        JOINT RightLegRoll
        {
          OFFSET 0 20.6244 0
          CHANNELS 3 Zrotation Xrotation Yrotation
          JOINT RightFoot
          {
            OFFSET 0 17.1664 0
            CHANNELS 3 Zrotation Xrotation Yrotation
            JOINT RightToeBase
            {
              OFFSET 0 14.3502 0
              CHANNELS 3 Zrotation Xrotation Yrotation
              End Site
              {
                OFFSET 0.00608252 6.9497 -0.801061
              }
            }
          }
        }
      }
    }
  }
  JOINT LeftUpLeg
  {
    OFFSET 5.66616 -1.03903 -0.87161
    CHANNELS 3 Zrotation Xrotation Yrotation
    JOINT LeftUpLegRoll
    {
      OFFSET 0 16.6006 0
      CHANNELS 3 Zrotation Xrotation Yrotation
      JOINT LeftLeg
      {
        OFFSET 0 20.5571 0
        CHANNELS 3 Zrotation Xrotation Yrotation
        JOINT LeftLegRoll
        {
          OFFSET 0 20.8151 0
          CHANNELS 3 Zrotation Xrotation Yrotation
          JOINT LeftFoot
          {
            OFFSET 0 16.9757 0
            CHANNELS 3 Zrotation Xrotation Yrotation
            JOINT LeftToeBase
            {
              OFFSET 0 14.3502 0
              CHANNELS 3 Zrotation Xrotation Yrotation
              End Site
              {
                OFFSET -0.0272592 6.94971 -0.801061
              }
            }
          }
        }
      }
    }
  }
}
MOTION
Frames: 10
Frame Time: 0.00208333
49.9748 92.0808 10.6544 3.67525 6.41895 -1.43348 -0.764026 -2.39548 -0.271687 -1.53432 -0.785389 -0.476094 -1.5288 0.859323 -0.450477 -13.5385 14.1644 4.58295 9.39462 6.89664 0.372622 32.4925 -16.8027 -13.0892 75.315 26.674 45.5933 1.16164e-006 1.5772e-006 -4.26902e-006 -6.45813 27.3193 1.61282 -1.48717e-006 3.45548e-006 -3.00009 8.02901 -4.95144 0.697709 -29.6271 -23.7658 21.1786 -74.3692 26.845 -34.9397 4.98912e-006 3.45197e-007 3.87747e-006 7.67103 31.4189 -3.1133 -2.00954e-006 -1.24661e-006 3 -8.02888 -4.95145 -0.697695 166.554 15.0908 5.55334 180 7.01531e-015 178.854 179.139 21.1843 179.111 -3.12544e-007 1.71389e-006 0.178878 -17.0888 66.135 18.1188 8.13649 25.2327 -3.48773 -173.772 13.6767 -0.361106 4.54188e-006 -4.6773e-006 -1.10611 0.0195864 -20.0407 0.622692 3.16957e-006 2.76371e-007 -0.128244 16.951 65.505 -17.6744 -8.13649 25.2327 3.48774 
50.0338 92.1275 10.6899 3.71701 6.40091 -1.44764 -0.763248 -2.38437 -0.27063 -1.5327 -0.763201 -0.473896 -1.52722 0.881513 -0.448308 -13.5689 14.1691 4.59506 9.38505 6.83347 0.379161 32.6009 -16.6713 -12.9404 75.8328 26.5083 45.1884 1.16164e-006 1.5772e-006 -4.26902e-006 -6.41288 26.528 1.52292 -1.48717e-006 3.45548e-006 -3.00009 8.02901 -4.95144 0.697709 -30.0394 -23.6883 20.9874 -74.7438 26.5809 -34.5928 4.98912e-006 3.45197e-007 3.87747e-006 7.53087 31.2507 -3.01767 -2.00954e-006 -1.24661e-006 3 -8.02888 -4.95145 -0.697695 166.692 15.1967 5.54946 180 7.01532e-015 178.86 179.023 21.3228 179.13 -3.12544e-007 1.71389e-006 0.187149 -17.107 66.1819 18.1522 8.13649 25.2327 -3.48773 -174.029 13.7353 -0.258314 4.54188e-006 -4.6773e-006 -1.10075 -0.0754386 -20.1872 0.611874 3.16957e-006 2.76371e-007 -0.137737 16.9688 65.5563 -17.7096 -8.13649 25.2327 3.48774 
50.032 92.1285 10.6722 3.75651 6.38243 -1.46106 -0.762169 -2.3732 -0.269528 -1.53048 -0.740864 -0.471637 -1.52503 0.903851 -0.446088 -13.5961 14.1745 4.60595 9.37437 6.76984 0.385471 32.7178 -16.5347 -12.7871 76.3457 26.3404 44.7929 1.16164e-006 1.5772e-006 -4.26902e-006 -6.36794 25.7375 1.43587 -1.48717e-006 3.45548e-006 -3.00009 8.02901 -4.95144 0.697709 -30.455 -23.6057 20.7922 -75.116 26.3171 -34.2411 4.98912e-006 3.45197e-007 3.87747e-006 7.37933 31.0552 -2.9194 -2.00954e-006 -1.24661e-006 3 -8.02888 -4.95145 -0.697695 166.834 15.3004 5.54104 180 7.01534e-015 178.867 178.909 21.46 179.148 -3.12544e-007 1.71389e-006 0.195121 -17.1257 66.2285 18.1854 8.13649 25.2327 -3.48773 -174.283 13.7926 -0.156001 4.54188e-006 -4.6773e-006 -1.09555 -0.168985 -20.3319 0.601047 3.16957e-006 2.76371e-007 -0.146933 16.9865 65.6067 -17.7442 -8.13649 25.2327 3.48774 
50.0788 92.1473 10.6451 3.79301 6.36389 -1.47344 -0.760717 -2.36201 -0.268327 -1.5275 -0.718514 -0.469216 -1.52209 0.926203 -0.443718 -13.6193 14.1809 4.61533 9.36293 6.70539 0.391492 32.8472 -16.3925 -12.6281 76.8498 26.168 44.4061 1.16164e-006 1.5772e-006 -4.26902e-006 -6.32317 24.9477 1.35136 -1.48717e-006 3.45548e-006 -3.00009 8.02901 -4.95144 0.697709 -30.8749 -23.5174 20.5925 -75.4844 26.0527 -33.88 4.98912e-006 3.45197e-007 3.87747e-006 7.21179 30.8271 -2.8164 -2.00954e-006 -1.24661e-006 3 -8.02888 -4.95145 -0.697695 166.98 15.4018 5.52694 180 7.01535e-015 178.873 178.8 21.5953 179.166 -3.12544e-007 1.71389e-006 0.202769 -17.1449 66.2749 18.2185 8.13649 25.2327 -3.48773 -174.534 13.8489 -0.0543466 4.54188e-006 -4.6773e-006 -1.09049 -0.260399 -20.4745 0.590319 3.16957e-006 2.76371e-007 -0.155803 17.004 65.6559 -17.7781 -8.13649 25.2327 3.48774 
50.0907 92.1911 10.6459 3.82576 6.34566 -1.48447 -0.758823 -2.35088 -0.266975 -1.52364 -0.696282 -0.466532 -1.51828 0.948437 -0.441101 -13.6378 14.1888 4.6229 9.35104 6.63976 0.397164 32.9934 -16.244 -12.4625 77.3411 25.9889 44.0275 1.16164e-006 1.5772e-006 -4.26902e-006 -6.27844 24.1583 1.26913 -1.48717e-006 3.45548e-006 -3.00009 8.02901 -4.95144 0.697709 -31.2998 -23.4229 20.3876 -75.8477 25.7865 -33.505 4.98912e-006 3.45197e-007 3.87747e-006 7.0237 30.561 -2.70663 -2.00954e-006 -1.24661e-006 3 -8.02888 -4.95145 -0.697695 167.131 15.5008 5.50599 180 7.01537e-015 178.879 178.696 21.7283 179.184 -3.12544e-007 1.71389e-006 0.210063 -17.1645 66.321 18.2515 8.13649 25.2327 -3.48773 -174.781 13.9044 0.0464709 4.54188e-006 -4.6773e-006 -1.08557 -0.349025 -20.6146 0.5798 3.16957e-006 2.76371e-007 -0.164324 17.0213 65.7039 -17.8113 -8.13649 25.2327 3.48774 
50.1332 92.2182 10.6415 3.85403 6.32809 -1.49384 -0.756415 -2.33988 -0.265417 -1.51875 -0.674303 -0.463487 -1.51343 0.970419 -0.438139 -13.651 14.1985 4.62838 9.33903 6.5726 0.402425 33.1606 -16.0885 -12.2893 77.8155 25.8006 43.6567 1.16164e-006 1.5772e-006 -4.26902e-006 -6.23361 23.3694 1.1889 -1.48717e-006 3.45548e-006 -3.00009 8.02901 -4.95144 0.697709 -31.7306 -23.3215 20.1768 -76.2043 25.5173 -33.1116 4.98912e-006 3.45197e-007 3.87747e-006 6.81065 30.2515 -2.58811 -2.00954e-006 -1.24661e-006 3 -8.02888 -4.95145 -0.697695 167.288 15.5971 5.47706 180 7.01538e-015 178.885 178.598 21.8582 179.2 -3.12544e-007 1.71389e-006 0.216976 -17.1847 66.3668 18.2842 8.13649 25.2327 -3.48773 -175.022 13.9593 0.146273 4.54188e-006 -4.6773e-006 -1.08078 -0.434206 -20.7516 0.569599 3.16957e-006 2.76371e-007 -0.172467 17.0383 65.7506 -17.8437 -8.13649 25.2327 3.48774 
50.15 92.2288 10.6332 3.87705 6.31158 -1.50124 -0.753425 -2.32907 -0.263598 -1.51269 -0.652709 -0.459978 -1.50742 0.992016 -0.434733 -13.658 14.2105 4.63147 9.32725 6.50355 0.407216 33.3528 -15.9254 -12.1075 78.2689 25.6008 43.2933 1.16164e-006 1.5772e-006 -4.26902e-006 -6.1886 22.5808 1.11043 -1.48717e-006 3.45548e-006 -3.00009 8.02901 -4.95144 0.697709 -32.168 -23.2128 19.9595 -76.5523 25.2436 -32.6954 4.98912e-006 3.45197e-007 3.87747e-006 6.56836 29.8932 -2.45896 -2.00954e-006 -1.24661e-006 3 -8.02888 -4.95145 -0.697695 167.454 15.6907 5.43897 180 7.0154e-015 178.892 178.507 21.9847 179.215 -3.12544e-007 1.71389e-006 0.223481 -17.2052 66.4123 18.3166 8.13649 25.2327 -3.48773 -175.256 14.014 0.244882 4.54188e-006 -4.6773e-006 -1.07609 -0.515284 -20.8852 0.559828 3.16957e-006 2.76371e-007 -0.180206 17.0551 65.7959 -17.8751 -8.13649 25.2327 3.48774 
50.1933 92.2286 10.6517 3.8941 6.29649 -1.50637 -0.74978 -2.31852 -0.261466 -1.50532 -0.631635 -0.455907 -1.5001 1.01309 -0.430786 -13.6582 14.2252 4.6319 9.316 6.43226 0.411475 33.5744 -15.7541 -11.9161 78.6972 25.3871 42.9371 1.16164e-006 1.5772e-006 -4.26902e-006 -6.1433 21.7923 1.03347 -1.48717e-006 3.45548e-006 -3.00008 8.02901 -4.95144 0.697709 -32.6128 -23.096 19.7352 -76.8899 24.9639 -32.252 4.98912e-006 3.45197e-007 3.87747e-006 6.29273 29.4806 -2.31735 -2.00954e-006 -1.24661e-006 3 -8.02888 -4.95145 -0.697695 167.628 15.7815 5.39057 180 7.01541e-015 178.898 178.423 22.1072 179.229 -3.12544e-007 1.71389e-006 0.229551 -17.2262 66.4572 18.3487 8.13649 25.2327 -3.48773 -175.484 14.0688 0.342119 4.54188e-006 -4.6773e-006 -1.07151 -0.591598 -21.015 0.550596 3.16957e-006 2.76371e-007 -0.187516 17.0715 65.8398 -17.9057 -8.13649 25.2327 3.48774 
50.2111 92.2232 10.6407 3.90666 6.28302 -1.50913 -0.745632 -2.3083 -0.259209 -1.49693 -0.611247 -0.451635 -1.49178 1.03349 -0.426656 -13.6527 14.2426 4.63013 9.30503 6.35944 0.415258 33.8199 -15.572 -11.7125 79.1173 25.1603 42.564 1.16164e-006 1.5772e-006 -4.26902e-006 -6.08023 20.9878 0.95439 -1.48717e-006 3.45548e-006 -3.00008 8.02901 -4.95144 0.697709 -33.0652 -22.9714 19.5036 -77.2172 24.6791 -31.7827 4.98912e-006 3.45197e-007 3.87747e-006 5.98583 29.0031 -2.1624 -2.00954e-006 -1.24661e-006 3 -8.02888 -4.95145 -0.697695 167.809 15.8718 5.33226 180 7.01543e-015 178.904 178.347 22.2298 179.242 -3.12544e-007 1.71389e-006 0.235195 -17.2496 66.5043 18.3821 8.13649 25.2327 -3.48773 -175.706 14.1212 0.437635 4.54188e-006 -4.6773e-006 -1.06692 -0.666903 -21.1345 0.540868 3.16957e-006 2.76371e-007 -0.194136 17.0858 65.8799 -17.9336 -8.13649 25.2327 3.48774 
50.2083 92.2241 10.6213 3.91699 6.27091 -1.50988 -0.741205 -2.29842 -0.257064 -1.488 -0.591524 -0.447612 -1.4829 1.05321 -0.422783 -13.6434 14.2624 4.62697 9.29367 6.28621 0.418691 34.0791 -15.3774 -11.4956 79.5491 24.9239 42.1535 1.16164e-006 1.5772e-006 -4.26902e-006 -5.98412 20.1531 0.870288 -1.48717e-006 3.45548e-006 -3.00008 8.02901 -4.95144 0.697709 -33.5244 -22.8399 19.2655 -77.5359 24.3914 -31.2939 4.98912e-006 3.45197e-007 3.87747e-006 5.65567 28.4578 -1.99615 -2.00954e-006 -1.24661e-006 3 -8.02888 -4.95145 -0.697695 167.994 15.9642 5.26584 180 7.01544e-015 178.911 178.277 22.3569 179.254 -3.12544e-007 1.71389e-006 0.24046 -17.2771 66.5557 18.4185 8.13649 25.2327 -3.48773 -175.927 14.1689 0.531338 4.54188e-006 -4.6773e-006 -1.06223 -0.745367 -21.2382 0.529584 3.16957e-006 2.76371e-007 -0.199868 17.0963 65.9141 -17.9575 -8.13649 25.2327 3.48774 
